<svg width="33" height="32" viewBox="0 0 33 32" fill="none" xmlns="http://www.w3.org/2000/svg">
<g clip-path="url(#clip0_2190_6782)">
<path d="M32.0399 14.3603C32.0399 15.4403 32.0399 16.5203 32.0399 17.6003C31.9999 17.7203 31.9199 17.8403 31.9199 17.9603C31.1599 24.3203 26.5999 29.6403 20.4399 31.3603C19.5199 31.6003 18.5999 31.7603 17.6799 32.0003C16.5999 32.0003 15.5199 32.0003 14.4399 32.0003C14.0399 31.9203 13.6799 31.8403 13.2799 31.7603C4.43994 30.2403 -1.52006 21.5603 0.319939 12.8003C2.03994 4.56034 9.51994 -0.839657 17.9599 0.0803425C24.2399 0.800343 29.6799 5.40034 31.3999 11.4803C31.6799 12.4003 31.8399 13.4003 32.0399 14.3603ZM13.8399 23.5603C13.8799 23.5203 13.8799 23.4403 13.9199 23.4003C14.7199 23.4403 15.3199 23.0803 15.8399 22.5203C18.7599 19.5203 21.6799 16.5603 24.6399 13.5603C25.0799 13.1203 25.5199 12.7203 25.8799 12.2403C26.5199 11.5203 26.5999 10.5603 26.1599 9.72034C25.7199 8.88034 24.8799 8.36034 23.9199 8.56034C23.3599 8.68034 22.7599 9.00034 22.3599 9.36034C19.9199 11.8803 17.4799 14.4003 14.9999 16.8803C14.1199 17.7603 13.6399 17.7603 12.7599 16.8803C11.7199 15.8403 10.6799 14.8003 9.63994 13.7603C8.63994 12.7603 7.27994 12.7203 6.35994 13.6403C5.43994 14.5603 5.43994 15.9203 6.43994 16.9203C8.35994 18.8403 10.2799 20.8003 12.2399 22.6803C12.6399 23.0803 13.2799 23.2803 13.8399 23.5603Z" fill="#25D366"/>
</g>
<defs>
<clipPath id="clip0_2190_6782">
<rect width="32.04" height="32" fill="white"/>
</clipPath>
</defs>
</svg>
