<svg width="24" height="18" viewBox="0 0 24 18" fill="none" xmlns="http://www.w3.org/2000/svg">
<g clip-path="url(#clip0_2098_5480)">
<path d="M23.0764 8.99959C22.661 9.83035 21.9226 10.3842 21.1841 10.938C20.3072 11.6304 19.3841 12.2765 18.4149 13.015C17.538 12.138 16.7533 11.3534 15.9687 10.5227C15.8764 10.4304 15.8764 10.1534 15.9687 10.015C16.938 6.92266 14.6303 3.87651 11.3534 3.96882C10.8918 3.96882 10.4303 4.15343 9.96874 4.19958C9.83027 4.19958 9.64566 4.24574 9.5995 4.15343C9.09181 3.69189 8.63027 3.23035 8.03027 2.63035C8.76873 2.49189 9.36874 2.30728 9.96874 2.21497C13.0149 1.75343 15.738 2.63035 18.3226 4.15343C19.7995 5.03035 21.138 6.04574 22.3841 7.24574C22.661 7.52266 22.8457 7.84574 23.0303 8.12266C23.0764 8.49189 23.0764 8.72266 23.0764 8.99959Z" fill="#00C6B0"/>
<path d="M4.33807 4.4303C3.5073 3.59953 2.67653 2.81491 1.89191 1.98414C1.7073 1.79953 1.52268 1.4303 1.47653 1.15338C1.38422 0.691837 1.66114 0.322606 2.07653 0.137991C2.44576 -0.0927784 2.86114 -0.0466245 3.23037 0.230299C3.32268 0.322606 3.41499 0.414914 3.55345 0.507222C8.67653 5.6303 13.8458 10.7995 19.015 15.9688C19.3381 16.2918 19.5688 16.6149 19.4765 17.0765C19.3842 17.4918 19.1534 17.8149 18.7381 17.9534C18.2765 18.0918 17.9073 17.9995 17.5842 17.6765C16.6611 16.7995 15.7842 15.8765 14.8611 14.9534C14.6304 14.7226 14.4458 14.6765 14.1227 14.7226C11.3996 15.3688 8.76884 14.9534 6.27653 13.7534C4.15345 12.738 2.3073 11.3995 0.599605 9.73799C-0.138856 9.04568 -0.18501 8.07645 0.599605 7.4303C1.7073 6.46107 2.86114 5.58414 4.01499 4.66107C4.1073 4.61491 4.1996 4.52261 4.33807 4.4303ZM7.15345 7.29184C6.55345 8.72261 7.06114 10.7072 8.26114 11.9072C9.46114 13.1072 11.4458 13.6149 12.8765 13.0149C12.5996 12.7841 12.3688 12.5534 12.1381 12.3226C11.9073 12.0457 11.6304 11.9072 11.215 11.8611C9.5073 11.6765 8.3996 10.4303 8.26114 8.72261C8.26114 8.6303 8.26114 8.49184 8.16884 8.44568C7.89191 8.0303 7.52268 7.66107 7.15345 7.29184Z" fill="#00C6B0"/>
<path d="M11.0303 5.39996C12.138 5.21534 13.1072 5.53842 13.938 6.36919C14.7226 7.15381 14.9533 8.12304 14.8149 9.18457C13.5226 7.89227 12.2764 6.64611 11.0303 5.39996Z" fill="#00C6B0"/>
</g>
<defs>
<clipPath id="clip0_2098_5480">
<rect width="23.0769" height="18" fill="white"/>
</clipPath>
</defs>
</svg>
