<svg width="12" height="12" viewBox="0 0 12 12" fill="none" xmlns="http://www.w3.org/2000/svg">
<path d="M0 5.96282C0.0827016 2.38184 2.96072 -0.0413179 6.05376 3.28467e-05C9.64301 0.0496538 12.0579 2.97729 12.0083 6.04552C11.9504 9.57687 9.10545 12.0331 5.97933 12C2.44797 11.9587 0 9.11375 0 5.96282ZM6.01241 2.34876C5.39214 2.34876 4.95383 2.86151 5.0448 3.48177C5.08615 3.77949 5.10269 4.07722 5.1275 4.38322C5.19366 5.14407 5.25155 5.89666 5.33425 6.65751C5.3756 7.0214 5.64852 7.23642 6.00414 7.23642C6.36802 7.23642 6.63267 7.0214 6.68229 6.66578C6.73191 6.31843 6.75672 5.97109 6.78153 5.61547C6.84769 4.89597 6.88904 4.18473 6.97174 3.46523C7.04618 2.86151 6.6244 2.34876 6.01241 2.34876ZM6.83942 8.81602C6.83942 8.31981 6.50035 7.989 5.99587 7.989C5.5162 7.989 5.17712 8.32808 5.17712 8.80775C5.17712 9.30396 5.5162 9.65131 6.00414 9.65131C6.50035 9.65131 6.83942 9.31223 6.83942 8.81602Z" fill="#CB3A31"/>
</svg>
