<svg width="11" height="14" viewBox="0 0 11 14" fill="none" xmlns="http://www.w3.org/2000/svg">
<path d="M5.6532 -0.000261366C5.91563 0.0471221 6.18535 0.0726363 6.4405 0.141889C8.49621 0.688622 9.80837 1.99349 10.3478 4.0492C10.6613 5.23744 10.4535 6.38558 10.0125 7.50455C9.54229 8.69279 8.87528 9.76803 8.12079 10.7959C7.31162 11.9003 6.41498 12.9281 5.4418 13.8904C5.296 14.0325 5.19394 14.0362 5.05544 13.8977C3.65945 12.509 2.40196 11.0073 1.3814 9.31606C0.823729 8.39026 0.342604 7.42437 0.123911 6.35642C-0.277026 4.36995 0.295221 2.68237 1.78233 1.3119C2.52225 0.630304 3.41524 0.233011 4.40665 0.0617017C4.5488 0.0361875 4.69095 0.0179631 4.83675 -0.00390625C5.10647 -0.000261366 5.37983 -0.000261366 5.6532 -0.000261366ZM5.23404 7.654C6.53526 7.66857 7.63237 6.58969 7.6506 5.28482C7.66882 3.96173 6.59358 2.85733 5.27778 2.84275C3.95104 2.83181 2.85757 3.89612 2.843 5.21921C2.82113 6.54595 3.89637 7.63942 5.23404 7.654Z" fill="#0E4B67"/>
</svg>
