<svg width="37" height="37" viewBox="0 0 37 37" fill="none" xmlns="http://www.w3.org/2000/svg">
<rect width="37" height="37" rx="8" fill="#1B75BC"/>
<path d="M18.9956 12C21.442 12.0156 23.521 13.782 23.9353 16.1971C24.076 17.0569 23.9196 17.8619 23.6305 18.667C23.0677 20.2145 22.2939 21.6683 21.4889 23.0986C21.059 23.8567 20.6213 24.6071 20.168 25.3418C19.6834 26.1312 18.6126 26.225 17.9952 25.545C17.9405 25.4903 17.8936 25.4277 17.8545 25.3574C16.7368 23.5285 15.6504 21.6761 14.7985 19.7065C14.5249 19.0734 14.2904 18.4247 14.1185 17.7603C13.8684 16.8068 14.0325 15.8689 14.4389 14.9935C15.1971 13.3365 16.4945 12.3673 18.2922 12.0625C18.5189 12.0156 18.7533 12.0156 18.9956 12ZM18.9878 14.6574C17.8858 14.6574 16.9869 15.5641 16.9869 16.6661C16.9869 17.7603 17.9014 18.6748 18.9956 18.667C20.0977 18.6592 20.9965 17.7525 20.9965 16.6583C20.9965 15.5562 20.0977 14.6574 18.9878 14.6574Z" fill="#F4F4F4"/>
</svg>
