<svg width="33" height="32" viewBox="0 0 33 32" fill="none" xmlns="http://www.w3.org/2000/svg">
<g clip-path="url(#clip0_2240_5792)">
<path d="M32.4962 10.0638C32.4795 10.0805 32.4629 10.0888 32.4545 10.1055C32.0213 11.4301 31.2632 11.9883 29.8719 11.9883C28.189 11.9883 26.4977 11.9883 24.8149 11.9883C23.8401 11.9883 23.1403 11.3968 22.982 10.4554C22.8237 9.54728 23.5235 8.59752 24.4483 8.50588C24.9731 8.4559 25.5063 8.48089 26.0395 8.47256C26.1645 8.47256 26.2811 8.47256 26.4978 8.47256C26.2395 8.1643 26.0395 7.89771 25.8229 7.66443C23.6652 5.29838 20.9909 3.92374 17.8167 3.57383C11.4433 2.89068 5.51988 7.24788 4.26188 13.5046C2.95388 20.0362 6.95284 26.4179 13.4012 28.1008C18.8581 29.5254 24.6399 27.0427 27.4142 22.0773C27.7891 21.4025 28.2973 20.9776 29.0887 20.986C30.4301 21.0026 31.2299 22.4023 30.5717 23.6186C29.7052 25.2265 28.5972 26.6512 27.2309 27.8675C24.7899 30.0669 21.9323 31.3749 18.6915 31.8581C18.3332 31.9081 17.975 31.9498 17.6167 31.9998C16.8669 31.9998 16.1171 31.9998 15.3673 31.9998C15.2923 31.9831 15.209 31.9498 15.134 31.9414C13.4511 31.8165 11.8349 31.4083 10.2853 30.7501C3.18716 27.7509 -0.753484 20.1362 0.862761 12.5965C2.53733 4.82351 10.002 -1.04163 18.7081 0.158057C22.7654 0.716244 26.1228 2.61575 28.7888 5.74827C28.8388 5.80659 28.8971 5.8649 28.9471 5.91489C28.9721 5.89823 28.9888 5.8899 28.9888 5.8899C28.9971 5.30672 28.9971 4.72353 28.9971 4.14035C29.0054 3.31557 29.6053 2.59076 30.3884 2.44913C31.2465 2.29083 32.0463 2.72405 32.3629 3.50718C32.4045 3.60716 32.4462 3.71546 32.4879 3.81544C32.4962 5.89823 32.4962 7.98102 32.4962 10.0638Z" fill="#0E4B67"/>
<path d="M16.5085 23.5431C15.1088 23.4682 13.7009 23.4515 12.3012 23.3015C10.8766 23.1516 9.8602 22.0435 9.76022 20.6106C9.67691 19.4775 9.64359 18.3445 9.63525 17.2115C9.63525 16.6533 9.71857 16.0867 9.8352 15.5452C10.0102 14.7121 10.51 14.0789 11.2515 13.6624C11.4181 13.5707 11.4848 13.4624 11.4848 13.2791C11.5098 12.5377 11.4764 11.7962 11.5931 11.0714C11.843 9.42181 13.0594 8.28044 14.7339 8.08883C16.0003 7.9472 17.2666 7.93887 18.5329 8.13048C20.0909 8.36376 21.3405 9.74673 21.4239 11.3213C21.4572 11.9795 21.4822 12.6293 21.4988 13.2875C21.5072 13.4624 21.5488 13.5624 21.7154 13.654C22.5319 14.1123 23.0401 14.8121 23.1901 15.7452C23.4567 17.4531 23.465 19.1693 23.1901 20.8688C22.9568 22.3185 21.8654 23.2682 20.4074 23.3598C19.7576 23.4015 19.0995 23.4432 18.4413 23.4598C17.7998 23.4765 17.15 23.4598 16.5085 23.4598C16.5085 23.4931 16.5085 23.5181 16.5085 23.5431ZM13.8592 13.1625C15.642 13.1625 17.3749 13.1625 19.1411 13.1625C19.1161 12.6543 19.0911 12.1544 19.0661 11.6629C19.0328 10.9298 18.6496 10.4799 17.9164 10.4549C16.975 10.4132 16.0253 10.4216 15.0838 10.4549C14.4507 10.4799 14.0174 10.8548 13.9508 11.4213C13.8925 11.9878 13.8925 12.571 13.8592 13.1625Z" fill="#0E4B67"/>
</g>
<defs>
<clipPath id="clip0_2240_5792">
<rect width="31.9917" height="32" fill="white" transform="translate(0.504395)"/>
</clipPath>
</defs>
</svg>
