<svg width="220" height="70" viewBox="0 0 220 70" fill="none" xmlns="http://www.w3.org/2000/svg">
<g clip-path="url(#clip0_1345_4480)">
<mask id="mask0_1345_4480" style="mask-type:luminance" maskUnits="userSpaceOnUse" x="0" y="-1" width="46" height="69">
<path d="M31.2293 7.93194C25.3309 13.7765 21.5872 21.5737 14.8269 26.4621C9.5883 29.1016 5.53482 27.9031 0 28.8323L1.84494 29.2094C9.8711 30.4618 15.0423 30.0308 20.9138 24.2536C27.3778 17.8973 29.9904 12.551 36.0235 8.09354C27.7145 19.7153 24.1728 33.209 27.095 48.0897C27.8088 51.7392 32.2124 66.2832 35.4175 67.4818C33.3301 61.6642 32.4683 55.4829 32.8588 49.3152C28.5629 33.7746 31.8219 18.2878 43.6322 4.67299C44.5344 3.62259 47.0527 0.98311 44.2516 0.0673726C44.09 0.0135057 43.9015 -0.0134277 43.6995 -0.0134277C40.5752 3.89861e-05 33.1416 6.03313 31.2293 7.93194Z" fill="white"/>
</mask>
<g mask="url(#mask0_1345_4480)">
<path d="M47.0662 0H0V67.4952H47.0662V0Z" fill="url(#paint0_linear_1345_4480)"/>
</g>
<mask id="mask1_1345_4480" style="mask-type:luminance" maskUnits="userSpaceOnUse" x="32" y="22" width="82" height="46">
<path d="M46.2718 22.5432H46.2314C45.2752 22.5567 44.1844 22.9741 42.9051 23.9842C41.4372 25.1423 40.2791 26.5024 39.094 27.9164C34.6096 34.5825 33.1283 41.7468 32.8455 49.3285C32.4415 55.4963 33.3168 61.6775 35.4041 67.4951H37.3029C39.3095 66.8218 39.2287 65.1115 39.0806 63.4955C38.6362 58.6609 38.5419 53.584 38.9459 48.7494C39.3634 43.6456 41.0332 34.2593 45.4503 30.2192C47.3087 34.4882 49.5038 37.4913 54.5807 37.2085C59.8193 36.8987 108.663 34.165 113.35 34.1111C108.596 34.1515 62.378 33.0877 53.1533 30.1384C51.6854 29.5594 50.2445 22.5432 46.2718 22.5432Z" fill="white"/>
</mask>
<g mask="url(#mask1_1345_4480)">
<path d="M113.349 22.5432H32.4414V67.4951H113.349V22.5432Z" fill="url(#paint1_linear_1345_4480)"/>
</g>
<path fill-rule="evenodd" clip-rule="evenodd" d="M202.997 55.3618C203.509 53.5303 205.071 52.6011 206.984 52.6011C209.004 52.6011 210.444 53.5169 210.673 55.3618H202.997ZM214.054 58.2571C214.606 52.4261 211.63 49.5038 206.862 49.5038C202.243 49.5038 199.294 52.6011 199.294 56.9105C199.294 61.4488 202.216 64.4653 207.118 64.4653C209.286 64.4653 211.737 63.7246 213.232 62.1625L210.983 59.9539C210.175 60.7889 208.478 61.2737 207.172 61.2737C204.694 61.2737 203.159 60.0078 202.93 58.2571H214.054ZM196.197 64.0882V56.6546C196.197 52.2106 193.517 49.7058 190.164 49.7058C188.372 49.7058 186.932 50.4195 185.491 51.8335L185.262 49.9078H182.11V64.0882H185.598V56.8566C185.598 54.7019 187.066 52.8974 189.234 52.8974C191.483 52.8974 192.668 54.5403 192.668 56.6815V64.0882H196.197ZM174.461 45.9486C174.461 48.6688 178.609 48.6688 178.609 45.9486C178.623 43.2148 174.461 43.2148 174.461 45.9486ZM178.299 49.8808V64.0882H174.785V49.8808H178.299ZM167.486 44.0228V64.0882H170.973V44.0228H167.486ZM152.995 55.3618C153.521 53.5303 155.069 52.6011 156.982 52.6011C159.002 52.6011 160.443 53.5169 160.671 55.3618H152.995ZM164.038 58.2571C164.59 52.4261 161.614 49.5038 156.847 49.5038C152.228 49.5038 149.292 52.6011 149.292 56.9105C149.292 61.4488 152.201 64.4653 157.116 64.4653C159.284 64.4653 161.735 63.7246 163.23 62.1625L160.981 59.9539C160.173 60.7889 158.476 61.2737 157.17 61.2737C154.692 61.2737 153.157 60.0078 152.928 58.2571H164.038ZM142.262 64.0882V53.2071H146.451V50.1367H142.262V49.194C142.262 47.4703 143.192 46.6623 144.404 46.6623C145.131 46.6623 145.818 46.9182 146.572 47.403L147.865 44.7904C146.706 44.0498 145.414 43.6458 144.175 43.6458C141.32 43.6458 138.748 45.3964 138.748 49.1806V50.1232H136.095V53.1937H138.748V64.0748H142.262V64.0882ZM129.846 45.9486C129.846 48.6688 134.007 48.6688 134.007 45.9486C134.007 43.2148 129.846 43.2148 129.846 45.9486ZM133.684 49.8808V64.0882H130.169V49.8808H133.684ZM122.87 44.0228V64.0882H126.358V44.0228H122.87ZM116.406 49.9347L113.807 56.1294L112.339 60.0347L110.979 56.0486L108.811 49.9347H104.717L110.4 63.8593L107.747 70.0001H111.612L120.298 49.9347H116.406ZM98.6572 44.0228V51.8604C97.8223 50.3926 95.4791 49.598 93.9843 49.598C89.8365 49.598 86.7392 52.1298 86.7392 57.0047C86.7392 61.6508 89.8904 64.4114 94.0651 64.4114C95.7888 64.4114 97.553 63.8324 98.6572 62.149L98.8862 64.1017H102.172V44.0363H98.6572V44.0228ZM94.294 52.857C96.516 52.857 98.4148 54.5269 98.4148 56.9913C98.4148 59.5499 96.516 61.1525 94.294 61.1525C92.0451 61.1525 90.254 59.4557 90.254 56.9913C90.254 54.4326 92.0451 52.857 94.294 52.857ZM72.9089 55.3618C73.4341 53.5303 74.9827 52.6011 76.895 52.6011C78.915 52.6011 80.356 53.5169 80.5849 55.3618H72.9089ZM83.965 58.2571C84.5172 52.4261 81.541 49.5038 76.7738 49.5038C72.1547 49.5038 69.2055 52.6011 69.2055 56.9105C69.2055 61.4488 72.1278 64.4653 77.0297 64.4653C79.1978 64.4653 81.6488 63.7246 83.1436 62.1625L80.8946 59.9539C80.0866 60.7889 78.3898 61.2737 77.0835 61.2737C74.6057 61.2737 73.0705 60.0078 72.8415 58.2571H83.965ZM62.0008 64.0882H65.8119V44.0228H61.4487L55.1328 52.6415L48.8169 44.0228H44.4268V64.0882H48.2378V49.5038L54.6749 58.2437H55.4291L62.0143 49.5307V64.0882H62.0008Z" fill="#007CBE"/>
<path fill-rule="evenodd" clip-rule="evenodd" d="M219.413 47.7126H219.642V44.7903H219.359L218.255 46.4871L217.137 44.7903C217.029 44.7903 216.976 44.7903 216.868 44.7903V47.7126H217.097V45.1135L218.228 46.8238H218.309L219.427 45.1135V47.7126H219.413ZM215.144 47.7126H215.373V45.0058H216.437V44.8038H214.094V45.0058H215.158V47.7126H215.144Z" fill="#007CBE"/>
<mask id="mask2_1345_4480" style="mask-type:luminance" maskUnits="userSpaceOnUse" x="0" y="-1" width="46" height="69">
<path d="M31.2293 7.93194C25.3309 13.7765 21.5872 21.5737 14.8269 26.4621C9.5883 29.1016 5.53482 27.9031 0 28.8323L1.84494 29.2094C9.8711 30.4618 15.0423 30.0308 20.9138 24.2536C27.3778 17.8973 29.9904 12.551 36.0235 8.09354C27.7145 19.7153 24.1728 33.209 27.095 48.0897C27.8088 51.7392 32.2124 66.2832 35.4175 67.4818C33.3301 61.6642 32.4683 55.4829 32.8588 49.3152C28.5629 33.7746 31.8219 18.2878 43.6322 4.67299C44.5344 3.62259 47.0527 0.98311 44.2516 0.0673726C44.09 0.0135057 43.9015 -0.0134277 43.6995 -0.0134277C40.5752 3.89861e-05 33.1416 6.03313 31.2293 7.93194Z" fill="white"/>
</mask>
<g mask="url(#mask2_1345_4480)">
<path d="M47.0662 0H0V67.4952H47.0662V0Z" fill="url(#paint2_linear_1345_4480)"/>
</g>
<mask id="mask3_1345_4480" style="mask-type:luminance" maskUnits="userSpaceOnUse" x="32" y="22" width="82" height="46">
<path d="M46.2718 22.5432H46.2314C45.2752 22.5567 44.1844 22.9741 42.9051 23.9842C41.4372 25.1423 40.2791 26.5024 39.094 27.9164C34.6096 34.5825 33.1283 41.7468 32.8455 49.3285C32.4415 55.4963 33.3168 61.6775 35.4041 67.4951H37.3029C39.3095 66.8218 39.2287 65.1115 39.0806 63.4955C38.6362 58.6609 38.5419 53.584 38.9459 48.7494C39.3634 43.6456 41.0332 34.2593 45.4503 30.2192C47.3087 34.4882 49.5038 37.4913 54.5807 37.2085C59.8193 36.8987 108.663 34.165 113.35 34.1111C108.596 34.1515 62.378 33.0877 53.1533 30.1384C51.6854 29.5594 50.2445 22.5432 46.2718 22.5432Z" fill="white"/>
</mask>
<g mask="url(#mask3_1345_4480)">
<path d="M113.349 22.5432H32.4414V67.4951H113.349V22.5432Z" fill="url(#paint3_linear_1345_4480)"/>
</g>
<path fill-rule="evenodd" clip-rule="evenodd" d="M202.997 55.3618C203.509 53.5303 205.071 52.6011 206.984 52.6011C209.004 52.6011 210.444 53.5169 210.673 55.3618H202.997ZM214.054 58.2571C214.606 52.4261 211.63 49.5038 206.862 49.5038C202.243 49.5038 199.294 52.6011 199.294 56.9105C199.294 61.4488 202.216 64.4653 207.118 64.4653C209.286 64.4653 211.737 63.7246 213.232 62.1625L210.983 59.9539C210.175 60.7889 208.478 61.2737 207.172 61.2737C204.694 61.2737 203.159 60.0078 202.93 58.2571H214.054ZM196.197 64.0882V56.6546C196.197 52.2106 193.517 49.7058 190.164 49.7058C188.372 49.7058 186.932 50.4195 185.491 51.8335L185.262 49.9078H182.11V64.0882H185.598V56.8566C185.598 54.7019 187.066 52.8974 189.234 52.8974C191.483 52.8974 192.668 54.5403 192.668 56.6815V64.0882H196.197ZM174.461 45.9486C174.461 48.6688 178.609 48.6688 178.609 45.9486C178.623 43.2148 174.461 43.2148 174.461 45.9486ZM178.299 49.8808V64.0882H174.785V49.8808H178.299ZM167.486 44.0228V64.0882H170.973V44.0228H167.486ZM152.995 55.3618C153.521 53.5303 155.069 52.6011 156.982 52.6011C159.002 52.6011 160.443 53.5169 160.671 55.3618H152.995ZM164.038 58.2571C164.59 52.4261 161.614 49.5038 156.847 49.5038C152.228 49.5038 149.292 52.6011 149.292 56.9105C149.292 61.4488 152.201 64.4653 157.116 64.4653C159.284 64.4653 161.735 63.7246 163.23 62.1625L160.981 59.9539C160.173 60.7889 158.476 61.2737 157.17 61.2737C154.692 61.2737 153.157 60.0078 152.928 58.2571H164.038ZM142.262 64.0882V53.2071H146.451V50.1367H142.262V49.194C142.262 47.4703 143.192 46.6623 144.404 46.6623C145.131 46.6623 145.818 46.9182 146.572 47.403L147.865 44.7904C146.706 44.0498 145.414 43.6458 144.175 43.6458C141.32 43.6458 138.748 45.3964 138.748 49.1806V50.1232H136.095V53.1937H138.748V64.0748H142.262V64.0882ZM129.846 45.9486C129.846 48.6688 134.007 48.6688 134.007 45.9486C134.007 43.2148 129.846 43.2148 129.846 45.9486ZM133.684 49.8808V64.0882H130.169V49.8808H133.684ZM122.87 44.0228V64.0882H126.358V44.0228H122.87ZM116.406 49.9347L113.807 56.1294L112.339 60.0347L110.979 56.0486L108.811 49.9347H104.717L110.4 63.8593L107.747 70.0001H111.612L120.298 49.9347H116.406ZM98.6572 44.0228V51.8604C97.8223 50.3926 95.4791 49.598 93.9843 49.598C89.8365 49.598 86.7392 52.1298 86.7392 57.0047C86.7392 61.6508 89.8904 64.4114 94.0651 64.4114C95.7888 64.4114 97.553 63.8324 98.6572 62.149L98.8862 64.1017H102.172V44.0363H98.6572V44.0228ZM94.294 52.857C96.516 52.857 98.4148 54.5269 98.4148 56.9913C98.4148 59.5499 96.516 61.1525 94.294 61.1525C92.0451 61.1525 90.254 59.4557 90.254 56.9913C90.254 54.4326 92.0451 52.857 94.294 52.857ZM72.9089 55.3618C73.4341 53.5303 74.9827 52.6011 76.895 52.6011C78.915 52.6011 80.356 53.5169 80.5849 55.3618H72.9089ZM83.965 58.2571C84.5172 52.4261 81.541 49.5038 76.7738 49.5038C72.1547 49.5038 69.2055 52.6011 69.2055 56.9105C69.2055 61.4488 72.1278 64.4653 77.0297 64.4653C79.1978 64.4653 81.6488 63.7246 83.1436 62.1625L80.8946 59.9539C80.0866 60.7889 78.3898 61.2737 77.0835 61.2737C74.6057 61.2737 73.0705 60.0078 72.8415 58.2571H83.965ZM62.0008 64.0882H65.8119V44.0228H61.4487L55.1328 52.6415L48.8169 44.0228H44.4268V64.0882H48.2378V49.5038L54.6749 58.2437H55.4291L62.0143 49.5307V64.0882H62.0008Z" fill="#007CBE"/>
<path fill-rule="evenodd" clip-rule="evenodd" d="M219.413 47.7126H219.642V44.7903H219.359L218.255 46.4871L217.137 44.7903C217.029 44.7903 216.976 44.7903 216.868 44.7903V47.7126H217.097V45.1135L218.228 46.8238H218.309L219.427 45.1135V47.7126H219.413ZM215.144 47.7126H215.373V45.0058H216.437V44.8038H214.094V45.0058H215.158V47.7126H215.144Z" fill="#007CBE"/>
</g>
<defs>
<linearGradient id="paint0_linear_1345_4480" x1="-5.17222" y1="5.20184" x2="51.5403" y2="61.5914" gradientUnits="userSpaceOnUse">
<stop stop-color="#96C947"/>
<stop offset="0.25" stop-color="#8EC647"/>
<stop offset="0.53" stop-color="#86C448"/>
<stop offset="0.69" stop-color="#6EBD49"/>
<stop offset="1" stop-color="#54B849"/>
</linearGradient>
<linearGradient id="paint1_linear_1345_4480" x1="32.7383" y1="45.0151" x2="113.354" y2="45.0151" gradientUnits="userSpaceOnUse">
<stop stop-color="#0E4B67"/>
<stop offset="0.0403554" stop-color="#0E506D"/>
<stop offset="0.3318" stop-color="#0F7195"/>
<stop offset="0.5987" stop-color="#1088B1"/>
<stop offset="0.8302" stop-color="#1197C3"/>
<stop offset="1" stop-color="#119CC9"/>
</linearGradient>
<linearGradient id="paint2_linear_1345_4480" x1="-5.17222" y1="5.20184" x2="51.5403" y2="61.5914" gradientUnits="userSpaceOnUse">
<stop stop-color="#96C947"/>
<stop offset="0.25" stop-color="#8EC647"/>
<stop offset="0.53" stop-color="#86C448"/>
<stop offset="0.69" stop-color="#6EBD49"/>
<stop offset="1" stop-color="#54B849"/>
</linearGradient>
<linearGradient id="paint3_linear_1345_4480" x1="32.7383" y1="45.0151" x2="113.354" y2="45.0151" gradientUnits="userSpaceOnUse">
<stop stop-color="#0E4B67"/>
<stop offset="0.0403554" stop-color="#0E506D"/>
<stop offset="0.3318" stop-color="#0F7195"/>
<stop offset="0.5987" stop-color="#1088B1"/>
<stop offset="0.8302" stop-color="#1197C3"/>
<stop offset="1" stop-color="#119CC9"/>
</linearGradient>
<clipPath id="clip0_1345_4480">
<rect width="219.629" height="70" fill="white"/>
</clipPath>
</defs>
</svg>
