<svg width="37" height="37" viewBox="0 0 37 37" fill="none" xmlns="http://www.w3.org/2000/svg">
<rect width="37" height="37" rx="8" fill="#1B75BC"/>
<g clip-path="url(#clip0_2187_6068)">
<path d="M9 14.9605C9.78781 15.4365 10.5756 15.9125 11.358 16.3885C13.508 17.7015 15.6581 19.009 17.8027 20.3275C18.2677 20.6174 18.6999 20.6065 19.1704 20.322C22.0371 18.5659 24.9093 16.8207 27.7816 15.07C27.8363 15.0371 27.8964 15.0043 27.984 14.9551C27.984 15.0426 27.984 15.1083 27.984 15.1739C27.984 17.4826 27.9621 19.7968 27.9895 22.1055C28.0059 23.6155 26.8406 25.0106 25.0844 25.0051C21.5557 24.9996 18.0324 25.0051 14.5037 25.0051C13.6229 25.0051 12.7366 25.0106 11.8558 25.0051C10.4717 24.9942 9.37749 24.1243 9.06565 22.7784C9.04377 22.6964 9.02735 22.6143 9.00547 22.5268C9 20.0047 9 17.4826 9 14.9605Z" fill="#F4F4F4"/>
<path d="M18.4919 11C20.6967 11 22.9014 11 25.1062 11C26.4083 11 27.486 11.7987 27.8471 13.0078C27.8909 13.161 27.8635 13.2321 27.7267 13.3142C24.7013 15.1579 21.6814 17.0016 18.6615 18.8507C18.5466 18.9218 18.4645 18.9218 18.3496 18.8507C15.3133 17.0016 12.277 15.1469 9.24062 13.3032C9.10384 13.2212 9.0929 13.1446 9.13667 13.0078C9.49228 11.8042 10.5755 11.0055 11.8721 11C14.0769 11 16.2816 11 18.4919 11Z" fill="#F4F4F4"/>
</g>
<defs>
<clipPath id="clip0_2187_6068">
<rect width="18.9895" height="14" fill="white" transform="translate(9 11)"/>
</clipPath>
</defs>
</svg>
