<svg width="15" height="11" viewBox="0 0 15 11" fill="none" xmlns="http://www.w3.org/2000/svg">
<path d="M0 3.11172C0.618992 3.48569 1.23798 3.85967 1.85268 4.23364C3.54201 5.2653 5.23134 6.29265 6.91637 7.3286C7.28175 7.55643 7.62134 7.54783 7.99101 7.3243C10.2435 5.94447 12.5002 4.57323 14.7569 3.19769C14.7999 3.1719 14.8472 3.14611 14.916 3.10742C14.916 3.1762 14.916 3.22778 14.916 3.27936C14.916 5.09335 14.8988 6.91164 14.9203 8.72563C14.9332 9.91203 14.0176 11.0082 12.6377 11.0039C9.86518 10.9996 7.09691 11.0039 4.32435 11.0039C3.63228 11.0039 2.93591 11.0082 2.24385 11.0039C1.15631 10.9953 0.2966 10.3118 0.0515827 9.25435C0.0343884 9.18988 0.0214928 9.1254 0.00429855 9.05662C0 7.07499 0 5.09335 0 3.11172Z" fill="#0E4B67"/>
<path d="M7.45788 0C9.19019 0 10.9225 0 12.6548 0C13.6779 0 14.5247 0.627589 14.8084 1.57757C14.8428 1.69793 14.8213 1.75381 14.7138 1.81829C12.3367 3.2669 9.96393 4.71551 7.59113 6.16843C7.50086 6.22431 7.43638 6.22431 7.34611 6.16843C4.96042 4.71551 2.57472 3.2583 0.189021 1.80969C0.0815572 1.74521 0.0729601 1.68503 0.107348 1.57757C0.386755 0.631887 1.23787 0.00429855 2.25663 0C3.98894 0 5.72126 0 7.45788 0Z" fill="#0E4B67"/>
</svg>
