<svg width="20" height="12" viewBox="0 0 20 12" fill="none" xmlns="http://www.w3.org/2000/svg">
<g clip-path="url(#clip0_2098_5666)">
<path d="M0 5.61609C1.32 3.52809 3.096 1.89609 5.376 0.936089C8.928 -0.575911 12.312 -0.191911 15.528 1.87209C16.872 2.73609 17.976 3.86409 18.888 5.18409C19.272 5.73609 19.296 6.24009 18.96 6.74409C17.136 9.36009 14.736 11.1601 11.592 11.7841C8.472 12.4081 5.688 11.6161 3.144 9.79209C1.872 8.85609 0.84 7.70409 0 6.38409C0 6.12009 0 5.88009 0 5.61609ZM13.632 6.04809C13.68 3.88809 11.88 2.04009 9.672 1.96809C7.488 1.89609 5.592 3.72009 5.544 5.95209C5.496 8.13609 7.296 9.98409 9.528 10.0561C11.736 10.1041 13.584 8.28009 13.632 6.04809Z" fill="#00C6B0"/>
<path d="M9.62437 3.38379C11.0644 3.38379 12.2404 4.55979 12.2404 6.02379C12.2404 7.46379 11.0644 8.63979 9.60037 8.63979C8.16037 8.63979 6.98438 7.43979 6.98438 5.99979C6.98438 4.53579 8.16037 3.38379 9.62437 3.38379Z" fill="#00C6B0"/>
</g>
<defs>
<clipPath id="clip0_2098_5666">
<rect width="19.224" height="12" fill="white"/>
</clipPath>
</defs>
</svg>
