<svg width="37" height="37" viewBox="0 0 37 37" fill="none" xmlns="http://www.w3.org/2000/svg">
<rect width="37" height="37" rx="8" fill="#1B75BC"/>
<path d="M12 14.0347C12.0341 13.8235 12.0613 13.6122 12.109 13.4078C12.1772 13.108 12.3339 12.8559 12.552 12.6378C12.9574 12.2323 13.3697 11.8303 13.7683 11.418C14.3543 10.8184 15.2402 10.9036 15.7649 11.4214C16.3918 12.0381 17.0119 12.6616 17.632 13.2852C18.1942 13.8507 18.201 14.6889 17.6422 15.2068C17.5298 15.3124 17.3833 15.3942 17.2402 15.4521C16.8552 15.6054 16.5486 15.8337 16.385 16.2255C16.2794 16.4708 16.2624 16.723 16.3305 16.9853C16.5315 17.7553 16.9676 18.3891 17.4957 18.9649C18.0375 19.5577 18.6474 20.0654 19.3765 20.4197C19.707 20.5799 20.0443 20.7128 20.4225 20.6548C20.8859 20.5833 21.2368 20.355 21.4412 19.9257C21.4685 19.8678 21.4923 19.8099 21.5162 19.7519C21.8501 18.9138 22.8893 18.6446 23.5707 19.2409C23.9182 19.5441 24.2317 19.8814 24.5554 20.2085C24.9336 20.5901 25.3288 20.9581 25.6831 21.3601C26.075 21.8064 26.0818 22.5117 25.7342 22.9955C25.6627 23.0944 25.5809 23.1898 25.4957 23.2749C25.1278 23.6463 24.7496 24.0109 24.385 24.3891C24.0613 24.7264 23.6763 24.9206 23.2129 24.9717C23.1925 24.9751 23.1721 24.9887 23.1516 24.9955C22.9404 24.9955 22.7325 24.9955 22.5213 24.9955C22.2726 24.9478 22.0204 24.907 21.7751 24.8456C20.7496 24.5833 19.8262 24.0995 18.9404 23.5305C17.8671 22.8422 16.8893 22.0313 15.9864 21.1318C14.7087 19.8576 13.5877 18.4538 12.7768 16.8184C12.4736 16.2051 12.2249 15.5714 12.1022 14.8967C12.0613 14.6651 12.0341 14.43 12 14.1983C12 14.1438 12 14.0892 12 14.0347Z" fill="#F4F4F4"/>
</svg>
