<svg width="14" height="14" viewBox="0 0 14 14" fill="none" xmlns="http://www.w3.org/2000/svg">
<g clip-path="url(#clip0_2187_6176)">
<path d="M0 3.03668C0.0340716 2.82544 0.0613288 2.61419 0.109029 2.40976C0.177172 2.10993 0.333901 1.85781 0.551959 1.63975C0.957411 1.2343 1.36968 0.832252 1.76831 0.419986C2.35434 -0.179673 3.2402 -0.0944944 3.76491 0.423393C4.39182 1.04009 5.01193 1.6636 5.63203 2.28711C6.19421 2.85269 6.20102 3.69085 5.64225 4.20874C5.52981 4.31436 5.38331 4.39614 5.2402 4.45406C4.8552 4.60738 4.54855 4.83566 4.38501 5.22748C4.27939 5.4728 4.26235 5.72493 4.33049 5.98728C4.53152 6.75729 4.96763 7.39103 5.49574 7.96683C6.03748 8.55968 6.64736 9.06735 7.37649 9.42169C7.70699 9.58183 8.04429 9.7147 8.42249 9.65678C8.88586 9.58523 9.2368 9.35695 9.44123 8.92765C9.46848 8.86973 9.49233 8.81181 9.51618 8.75389C9.85009 7.91573 10.8893 7.64656 11.5707 8.24281C11.9182 8.54605 12.2317 8.88336 12.5554 9.21045C12.9336 9.59205 13.3288 9.96002 13.6831 10.3621C14.075 10.8084 14.0818 11.5137 13.7342 11.9975C13.6627 12.0963 13.5809 12.1917 13.4957 12.2769C13.1278 12.6483 12.7496 13.0128 12.385 13.391C12.0613 13.7283 11.6763 13.9225 11.2129 13.9736C11.1925 13.9771 11.1721 13.9907 11.1516 13.9975C10.9404 13.9975 10.7325 13.9975 10.5213 13.9975C10.2726 13.9498 10.0204 13.9089 9.77513 13.8476C8.74957 13.5852 7.82624 13.1014 6.94038 12.5324C5.86712 11.8442 4.88927 11.0333 3.98637 10.1338C2.70869 8.85951 1.58773 7.45576 0.776831 5.82033C0.473595 5.20704 0.224872 4.57331 0.102215 3.89869C0.0613288 3.667 0.0340716 3.43191 0 3.20022C0 3.14571 0 3.0912 0 3.03668Z" fill="#0E4B67"/>
</g>
<defs>
<clipPath id="clip0_2187_6176">
<rect width="13.9898" height="14" fill="white"/>
</clipPath>
</defs>
</svg>
