<svg width="56" height="56" viewBox="0 0 56 56" fill="none" xmlns="http://www.w3.org/2000/svg">
<g filter="url(#filter0_d_2106_6410)">
<rect x="7" y="6" width="40" height="40" rx="8" fill="#FBFBFB"/>
</g>
<g clip-path="url(#clip0_2106_6410)">
<path d="M27.6976 35.9999C27.229 35.9999 26.7605 35.9999 26.292 35.9999C26.063 35.9686 25.8287 35.9426 25.5997 35.9114C23.7881 35.6459 22.1536 34.9535 20.7324 33.7979C18.8116 32.231 17.6091 30.232 17.1562 27.7854C17.0885 27.4314 17.0521 27.067 17 26.7078C17 26.2393 17 25.7708 17 25.3023C17.0156 25.1878 17.0312 25.0733 17.0469 24.9588C17.229 23.3762 17.7392 21.9187 18.5981 20.5756C20.8574 17.0566 25.178 15.3023 29.2488 16.2602C34.2983 17.447 37.6195 22.257 36.9011 27.3742C36.5679 29.7531 35.5008 31.7625 33.7309 33.3867C32.3149 34.6881 30.6491 35.5105 28.7543 35.8437C28.4055 35.9062 28.0515 35.9478 27.6976 35.9999ZM27.1666 33.8239C27.4893 33.7823 28.0047 33.751 28.5044 33.6521C30.2952 33.2982 31.7788 32.408 32.9656 31.0233C33.1947 30.7578 33.2572 30.4507 33.1687 30.1123C32.8251 28.7536 32.1067 27.624 31.0239 26.7287C30.5867 26.3643 30.1702 26.3487 29.7069 26.6766C28.9261 27.2284 28.0463 27.4991 27.0937 27.5199C26.0422 27.5407 25.0791 27.2596 24.215 26.6506C23.8037 26.3591 23.3717 26.3799 22.9761 26.7026C21.8829 27.5928 21.1541 28.7224 20.8001 30.0863C20.7064 30.4455 20.7741 30.7682 21.0187 31.0493C22.6065 32.8505 24.6002 33.751 27.1666 33.8239ZM26.9896 19.0556C25.0375 19.0452 23.4081 20.6745 23.4081 22.6266C23.4081 24.6048 25.0167 26.2289 26.9792 26.2289C28.9729 26.2289 30.5711 24.636 30.5815 22.6422C30.5919 20.6797 28.9729 19.0608 26.9896 19.0556Z" fill="#0E4B67"/>
</g>
<defs>
<filter id="filter0_d_2106_6410" x="0" y="0" width="56" height="56" filterUnits="userSpaceOnUse" color-interpolation-filters="sRGB">
<feFlood flood-opacity="0" result="BackgroundImageFix"/>
<feColorMatrix in="SourceAlpha" type="matrix" values="0 0 0 0 0 0 0 0 0 0 0 0 0 0 0 0 0 0 127 0" result="hardAlpha"/>
<feOffset dx="1" dy="2"/>
<feGaussianBlur stdDeviation="4"/>
<feComposite in2="hardAlpha" operator="out"/>
<feColorMatrix type="matrix" values="0 0 0 0 0 0 0 0 0 0 0 0 0 0 0 0 0 0 0.06 0"/>
<feBlend mode="normal" in2="BackgroundImageFix" result="effect1_dropShadow_2106_6410"/>
<feBlend mode="normal" in="SourceGraphic" in2="effect1_dropShadow_2106_6410" result="shape"/>
</filter>
<clipPath id="clip0_2106_6410">
<rect width="19.9948" height="20" fill="white" transform="translate(17 16)"/>
</clipPath>
</defs>
</svg>
