<svg width="20" height="20" viewBox="0 0 20 20" fill="none" xmlns="http://www.w3.org/2000/svg">
<g clip-path="url(#clip0_2106_6412)">
<path d="M10.6976 19.9999C10.229 19.9999 9.76054 19.9999 9.29204 19.9999C9.06299 19.9686 8.82874 19.9426 8.59969 19.9114C6.78813 19.6459 5.15357 18.9535 3.73243 17.7979C1.81156 16.231 0.609058 14.232 0.156169 11.7854C0.0884956 11.4314 0.0520562 11.067 0 10.7078C0 10.2393 0 9.77083 0 9.30232C0.0156169 9.1878 0.0312337 9.07328 0.0468506 8.95875C0.229047 7.37624 0.739198 5.91867 1.59813 4.57562C3.85737 1.05662 8.17803 -0.697677 12.2488 0.260157C17.2983 1.44704 20.6195 6.25703 19.9011 11.3742C19.5679 13.7531 18.5008 15.7625 16.7309 17.3867C15.3149 18.6881 13.6491 19.5105 11.7543 19.8437C11.4055 19.9062 11.0515 19.9478 10.6976 19.9999ZM10.1666 17.8239C10.4893 17.7823 11.0047 17.751 11.5044 17.6521C13.2952 17.2982 14.7788 16.408 15.9656 15.0233C16.1947 14.7578 16.2572 14.4507 16.1687 14.1123C15.8251 12.7536 15.1067 11.624 14.0239 10.7287C13.5867 10.3643 13.1702 10.3487 12.7069 10.6766C11.9261 11.2284 11.0463 11.4991 10.0937 11.5199C9.04217 11.5407 8.07913 11.2596 7.21499 10.6506C6.80375 10.3591 6.37168 10.3799 5.97605 10.7026C4.88287 11.5928 4.15409 12.7224 3.8001 14.0863C3.7064 14.4455 3.77408 14.7682 4.01874 15.0493C5.60645 16.8505 7.60021 17.751 10.1666 17.8239ZM9.98959 3.05558C8.03748 3.04516 6.40812 4.67452 6.40812 6.62663C6.40812 8.60477 8.01666 10.2289 9.97918 10.2289C11.9729 10.2289 13.5711 8.636 13.5815 6.64225C13.5919 4.67973 11.9729 3.06078 9.98959 3.05558Z" fill="#0E4B67"/>
</g>
<defs>
<clipPath id="clip0_2106_6412">
<rect width="19.9948" height="20" fill="white"/>
</clipPath>
</defs>
</svg>
