<svg width="42" height="42" viewBox="0 0 42 42" fill="none" xmlns="http://www.w3.org/2000/svg">
<rect width="42" height="42" rx="8" fill="#1B75BC"/>
<path d="M11.6667 21.0002C11.6667 21.3096 11.7897 21.6063 12.0085 21.8251C12.2272 22.0439 12.524 22.1668 12.8334 22.1668H21.6884L19.0051 24.8385C18.8957 24.947 18.8089 25.076 18.7497 25.2182C18.6905 25.3603 18.66 25.5128 18.66 25.6668C18.66 25.8208 18.6905 25.9733 18.7497 26.1155C18.8089 26.2577 18.8957 26.3867 19.0051 26.4952C19.1135 26.6045 19.2426 26.6913 19.3847 26.7505C19.5269 26.8098 19.6794 26.8403 19.8334 26.8403C19.9874 26.8403 20.1399 26.8098 20.2821 26.7505C20.4243 26.6913 20.5533 26.6045 20.6617 26.4952L25.3284 21.8285C25.4346 21.7175 25.5179 21.5867 25.5734 21.4435C25.6901 21.1595 25.6901 20.8409 25.5734 20.5568C25.5179 20.4136 25.4346 20.2828 25.3284 20.1718L20.6617 15.5052C20.553 15.3964 20.4238 15.3101 20.2817 15.2512C20.1396 15.1924 19.9873 15.1621 19.8334 15.1621C19.6796 15.1621 19.5272 15.1924 19.3851 15.2512C19.243 15.3101 19.1139 15.3964 19.0051 15.5052C18.8963 15.6139 18.81 15.7431 18.7511 15.8852C18.6923 16.0273 18.662 16.1797 18.662 16.3335C18.662 16.4873 18.6923 16.6397 18.7511 16.7818C18.81 16.9239 18.8963 17.0531 19.0051 17.1618L21.6884 19.8335H12.8334C12.524 19.8335 12.2272 19.9564 12.0085 20.1752C11.7897 20.394 11.6667 20.6907 11.6667 21.0002ZM26.8334 9.3335H15.1667C14.2385 9.3335 13.3483 9.70225 12.6919 10.3586C12.0355 11.015 11.6667 11.9052 11.6667 12.8335V16.3335C11.6667 16.6429 11.7897 16.9397 12.0085 17.1585C12.2272 17.3772 12.524 17.5002 12.8334 17.5002C13.1428 17.5002 13.4396 17.3772 13.6584 17.1585C13.8772 16.9397 14.0001 16.6429 14.0001 16.3335V12.8335C14.0001 12.5241 14.123 12.2273 14.3418 12.0085C14.5606 11.7897 14.8573 11.6668 15.1667 11.6668H26.8334C27.1428 11.6668 27.4396 11.7897 27.6584 12.0085C27.8772 12.2273 28.0001 12.5241 28.0001 12.8335V29.1668C28.0001 29.4762 27.8772 29.773 27.6584 29.9918C27.4396 30.2106 27.1428 30.3335 26.8334 30.3335H15.1667C14.8573 30.3335 14.5606 30.2106 14.3418 29.9918C14.123 29.773 14.0001 29.4762 14.0001 29.1668V25.6668C14.0001 25.3574 13.8772 25.0607 13.6584 24.8419C13.4396 24.6231 13.1428 24.5002 12.8334 24.5002C12.524 24.5002 12.2272 24.6231 12.0085 24.8419C11.7897 25.0607 11.6667 25.3574 11.6667 25.6668V29.1668C11.6667 30.0951 12.0355 30.9853 12.6919 31.6417C13.3483 32.2981 14.2385 32.6668 15.1667 32.6668H26.8334C27.7617 32.6668 28.6519 32.2981 29.3083 31.6417C29.9647 30.9853 30.3334 30.0951 30.3334 29.1668V12.8335C30.3334 11.9052 29.9647 11.015 29.3083 10.3586C28.6519 9.70225 27.7617 9.3335 26.8334 9.3335Z" fill="#FBFBFB"/>
</svg>
