<svg width="125" height="30" viewBox="0 0 125 30" fill="none" xmlns="http://www.w3.org/2000/svg">
<g clip-path="url(#clip0_1345_4437)">
<path d="M73.8598 29.2542C73.7912 29.4599 73.8341 29.6228 73.9541 29.6228H74.1426C74.1855 29.6228 74.1941 29.6399 74.1855 29.6742L74.1598 29.7942C74.1512 29.8199 74.1426 29.8371 74.0912 29.8371C74.0398 29.8371 73.8598 29.8199 73.3626 29.8199C72.8569 29.8199 72.6512 29.8371 72.5826 29.8371C72.5483 29.8371 72.5312 29.8199 72.5398 29.7857L72.5655 29.6571C72.5741 29.6314 72.5826 29.6228 72.6169 29.6228H72.7541C72.9169 29.6228 73.0283 29.5199 73.1398 29.1599L73.4741 28.1228C73.4912 28.0714 73.4826 28.0457 73.4312 28.0457H71.9398C71.8883 28.0457 71.8541 28.0542 71.8455 28.0971L71.4769 29.2714C71.3826 29.5628 71.4769 29.6228 71.6483 29.6228H71.7855C71.8198 29.6228 71.8283 29.6399 71.8198 29.6657L71.8026 29.7857C71.7941 29.8199 71.7769 29.8371 71.7426 29.8371C71.6826 29.8371 71.4683 29.8199 70.9455 29.8199C70.4569 29.8199 70.2683 29.8371 70.2169 29.8371C70.1826 29.8371 70.1655 29.8199 70.1741 29.7942L70.1998 29.6657C70.2083 29.6314 70.2169 29.6228 70.2512 29.6228H70.3798C70.5512 29.6228 70.6541 29.4942 70.7483 29.2199L71.5969 26.6142C71.6483 26.4428 71.5455 26.3571 71.4598 26.3571H71.2798C71.2455 26.3571 71.2283 26.3485 71.2369 26.3228L71.2626 26.1942C71.2712 26.1599 71.2883 26.1514 71.3141 26.1514C71.3569 26.1514 71.6483 26.1685 72.1198 26.1685C72.4969 26.1685 72.7712 26.1514 72.8141 26.1514C72.8483 26.1514 72.8655 26.1685 72.8655 26.1942L72.8312 26.3228C72.8226 26.3485 72.8055 26.3571 72.7798 26.3571H72.6598C72.4883 26.3571 72.3941 26.4257 72.3341 26.6399L71.9741 27.7714C71.9569 27.8228 71.9741 27.8399 72.0169 27.8399H73.5083C73.5512 27.8399 73.5769 27.8228 73.5855 27.7714L73.9541 26.5885C74.0055 26.4342 73.8941 26.3657 73.7912 26.3657H73.7055C73.6798 26.3657 73.6712 26.3571 73.6712 26.3314L73.7055 26.1857C73.7141 26.1599 73.7312 26.1514 73.7569 26.1514C73.8083 26.1514 74.0826 26.1685 74.4941 26.1685C74.8455 26.1685 75.0683 26.1514 75.1283 26.1514C75.1712 26.1514 75.1883 26.1685 75.1798 26.1857L75.1541 26.3142C75.1455 26.3399 75.1283 26.3571 75.1026 26.3571H74.9998C74.8541 26.3571 74.7598 26.4257 74.6826 26.6399L73.8598 29.2542Z" fill="#1B75BB"/>
<path d="M76.8257 29.28C76.8514 29.2971 76.8514 29.3142 76.8342 29.3314C76.74 29.5285 76.3285 29.88 75.8057 29.88C75.4371 29.88 75.1714 29.6571 75.1714 29.2714C75.1714 28.8685 75.3428 28.2857 75.8228 27.8742C76.0885 27.6428 76.4057 27.4885 76.7228 27.4885C77.0228 27.4885 77.1428 27.66 77.1428 27.8657C77.1428 28.1742 76.9628 28.3971 76.6542 28.5771C76.3542 28.7485 76.0628 28.8 75.8571 28.8171C75.84 28.8685 75.8142 29.0057 75.8142 29.16C75.8142 29.3485 75.9257 29.5114 76.1057 29.5114C76.3714 29.5114 76.5685 29.3657 76.6885 29.2285C76.6971 29.2114 76.7142 29.2028 76.7314 29.2114L76.8257 29.28ZM76.3971 28.3971C76.4828 28.3114 76.5685 28.1314 76.5685 27.9514C76.5685 27.8657 76.5428 27.7628 76.4228 27.7628C76.2171 27.7628 75.9857 28.26 75.9085 28.62C75.9942 28.62 76.2428 28.5514 76.3971 28.3971Z" fill="#1B75BB"/>
<path d="M80.0571 27.4629C80.0914 27.4629 80.1085 27.4886 80.1 27.5315C80.0228 27.7629 79.7571 28.4915 79.7143 28.6715C79.6971 28.7657 79.5 29.3743 79.5 29.46C79.5 29.5029 79.5257 29.5286 79.5685 29.5286C79.6543 29.5286 79.8257 29.28 79.8685 29.22C79.8943 29.1857 79.9028 29.1857 79.92 29.2029L79.9885 29.2457C80.0057 29.2543 79.9971 29.28 79.98 29.3143C79.9285 29.4257 79.6285 29.8886 79.1228 29.8886C78.96 29.8886 78.9 29.8029 78.9 29.7172C78.9 29.6486 78.9257 29.5457 79.1057 29.0057L79.0543 28.98C78.84 29.3057 78.4885 29.8886 77.9828 29.8886C77.8371 29.8886 77.6143 29.6829 77.6143 29.46C77.6143 28.7743 78.2828 27.4972 79.0543 27.4972C79.2943 27.4972 79.4057 27.6 79.4743 27.6857L79.56 27.5229C79.5857 27.48 79.62 27.4629 79.6543 27.4629H80.0571ZM78.4028 29.4343C78.5485 29.4343 79.0543 28.7143 79.1485 28.4915C79.2171 28.3457 79.2771 28.1572 79.2771 27.9686C79.2771 27.8486 79.1485 27.72 79.0371 27.72C78.9085 27.72 78.7714 27.8315 78.6343 28.0886C78.36 28.5772 78.2743 28.9972 78.2743 29.2629C78.2657 29.3915 78.3085 29.4343 78.4028 29.4343Z" fill="#1B75BB"/>
<path d="M82.3196 26.1169C82.371 26.1169 82.3882 26.1512 82.3539 26.2198L81.2739 29.2884C81.2225 29.4427 81.2224 29.5198 81.3253 29.5198C81.4539 29.5198 81.6424 29.3227 81.711 29.2541C81.7282 29.2369 81.7453 29.2369 81.7625 29.2541L81.8224 29.3227C81.831 29.3398 81.8396 29.3569 81.8224 29.3827C81.8053 29.4255 81.3853 29.8884 80.811 29.8884C80.6996 29.8884 80.5796 29.7512 80.5796 29.6569C80.5796 29.5627 80.6739 29.3055 80.7339 29.1512L81.5824 26.6655C81.651 26.4598 81.6339 26.3227 81.4796 26.3227H81.3253C81.291 26.3227 81.2739 26.2969 81.2824 26.2712L81.3167 26.1598C81.3253 26.1255 81.3424 26.1169 81.3682 26.1169H82.3196Z" fill="#1B75BB"/>
<path d="M83.7597 27.6514H84.3083C84.334 27.6514 84.3426 27.6685 84.334 27.7028L84.2997 27.8485C84.2912 27.8828 84.2654 27.8999 84.2312 27.8999H83.6826L83.2369 29.0999C83.2112 29.1856 83.1597 29.3228 83.1597 29.3914C83.1597 29.4428 83.2026 29.4942 83.2797 29.4942C83.3826 29.4942 83.7083 29.2628 83.7426 29.2285C83.7597 29.2114 83.7769 29.2114 83.794 29.2285L83.854 29.2971C83.8712 29.3142 83.8797 29.3228 83.8712 29.3399C83.8026 29.4342 83.3397 29.8885 82.7912 29.8885C82.6026 29.8885 82.5083 29.7771 82.5083 29.6914C82.5083 29.5799 82.5254 29.4599 82.5683 29.3571L83.0569 27.9085H82.6283C82.594 27.9085 82.5854 27.8828 82.594 27.8485L82.6283 27.7028C82.6369 27.6771 82.654 27.6685 82.6883 27.6685H83.134L83.314 27.0771C83.3312 27.0256 83.3569 27.0085 83.494 26.9999C83.6312 26.9914 83.9226 26.8542 83.9654 26.8199C83.9912 26.8028 84.0254 26.7856 84.0512 26.7856C84.0854 26.7856 84.1112 26.8456 84.094 26.8799L83.7597 27.6514Z" fill="#1B75BB"/>
<path d="M85.5599 28.2684L85.6113 28.3113C85.8513 27.917 86.2113 27.4884 86.597 27.4884C86.9999 27.4884 87.077 27.8056 87.077 28.0713C87.077 28.457 86.9228 28.9284 86.7342 29.2713C86.477 29.717 86.1599 29.9999 85.7742 29.9999C85.5942 29.9999 85.4313 29.8884 85.4313 29.6484C85.4228 29.5113 85.5085 29.3656 85.6713 29.3656C85.817 29.3656 85.877 29.477 85.8856 29.5713C85.8942 29.6827 85.9028 29.7684 85.9885 29.7684C86.1085 29.7684 86.1942 29.4341 86.2799 29.1256C86.3656 28.817 86.4599 28.4227 86.4599 28.1313C86.4599 27.977 86.4085 27.8999 86.297 27.8999C86.0999 27.8999 85.7656 28.3284 85.6113 28.5256C85.4828 28.7056 85.3885 28.8941 85.337 29.0141L85.0285 29.777C85.0199 29.8027 84.9856 29.8113 84.9342 29.8113H84.5056C84.4542 29.8113 84.437 29.7856 84.4542 29.7427L85.577 26.6827C85.6113 26.597 85.6542 26.4684 85.6542 26.3999C85.6542 26.3399 85.5856 26.297 85.4828 26.297H85.3285C85.3028 26.297 85.2942 26.2799 85.2942 26.2541L85.3199 26.1427C85.3285 26.117 85.337 26.0999 85.3799 26.0999H86.3485C86.3913 26.0999 86.417 26.1256 86.417 26.1513C86.417 26.1856 86.3999 26.2456 86.357 26.3399L85.5599 28.2684Z" fill="#1B75BB"/>
<path d="M89.1343 29.3485C89.1514 29.3571 89.16 29.3742 89.1429 29.4085C89.0657 29.52 88.7143 29.88 88.2514 29.88C88.0114 29.88 87.7114 29.6914 87.7114 29.2714C87.7114 28.6114 88.2771 27.4885 89.0571 27.4885C89.3743 27.4885 89.4771 27.6942 89.4771 27.7885C89.4771 27.96 89.34 28.1057 89.2371 28.1057C89.1257 28.1057 89.0571 28.0714 89.0229 27.96C88.9971 27.8657 88.9457 27.7885 88.8514 27.7885C88.7571 27.7885 88.6886 27.9171 88.5943 28.1571C88.4657 28.4914 88.38 28.6885 88.38 29.1685C88.38 29.34 88.4057 29.5114 88.5857 29.5114C88.7486 29.5114 88.9543 29.3914 89.0314 29.3142C89.0486 29.2885 89.0657 29.28 89.0829 29.2885L89.1343 29.3485Z" fill="#1B75BB"/>
<path d="M92.3054 27.4629C92.3397 27.4629 92.3568 27.4886 92.3482 27.5315C92.2711 27.7629 92.0054 28.4915 91.9625 28.6715C91.9368 28.7657 91.7482 29.3743 91.7482 29.46C91.7482 29.5029 91.7739 29.5286 91.8168 29.5286C91.9025 29.5286 92.0739 29.28 92.1168 29.22C92.1425 29.1857 92.1511 29.1857 92.1682 29.2029L92.2368 29.2457C92.2539 29.2543 92.2454 29.28 92.2282 29.3143C92.1768 29.4257 91.8768 29.8886 91.3711 29.8886C91.2082 29.8886 91.1482 29.8029 91.1482 29.7172C91.1482 29.6486 91.174 29.5457 91.3625 29.0057L91.3111 28.98C91.0968 29.3057 90.7454 29.8886 90.2397 29.8886C90.094 29.8886 89.8711 29.6829 89.8711 29.46C89.8711 28.7743 90.5397 27.4972 91.3111 27.4972C91.5511 27.4972 91.6625 27.6 91.7311 27.6857L91.8168 27.5229C91.8425 27.48 91.8768 27.4629 91.9111 27.4629H92.3054ZM90.6425 29.4343C90.7882 29.4343 91.294 28.7143 91.3968 28.4915C91.4654 28.3457 91.5168 28.1572 91.5168 27.9686C91.5168 27.8486 91.3882 27.72 91.2768 27.72C91.1482 27.72 91.0111 27.8315 90.8739 28.0886C90.6082 28.5772 90.514 28.9972 90.514 29.2629C90.514 29.3915 90.5568 29.4343 90.6425 29.4343Z" fill="#1B75BB"/>
<path d="M93.0425 29.8285C93.0082 29.8285 92.9825 29.8028 92.991 29.7771L93.2482 28.8942C93.3425 28.5856 93.5053 28.0456 93.5053 27.9428C93.5053 27.8914 93.471 27.8399 93.411 27.8399C93.3253 27.8399 93.1282 28.0199 93.0596 28.1399C93.0339 28.1742 93.0168 28.1742 92.991 28.1656L92.9396 28.1314C92.9225 28.1228 92.9225 28.1056 92.9396 28.0628C93.0253 27.8999 93.3339 27.4971 93.8053 27.4971C94.0196 27.4971 94.0882 27.6085 94.0882 27.7114C94.0882 27.8056 93.9853 28.0799 93.8568 28.4314L93.9167 28.4656C94.0539 28.1656 94.3796 27.4971 94.7653 27.4971C94.9196 27.4971 95.0739 27.6171 95.0739 27.7885C95.0739 27.9771 94.9282 28.1399 94.8339 28.1399C94.7653 28.1399 94.7053 28.1314 94.6539 28.0971C94.611 28.0714 94.5682 28.0285 94.4996 28.0285C94.3282 28.0285 94.0453 28.4571 93.9253 28.7399C93.8739 28.8685 93.8139 29.0314 93.7453 29.2285L93.5739 29.7771C93.5653 29.8028 93.5396 29.8114 93.5053 29.8114H93.0425V29.8285Z" fill="#1B75BB"/>
<path d="M97.0884 29.28C97.1055 29.2971 97.1055 29.3142 97.0969 29.3314C97.0027 29.5285 96.5912 29.88 96.0684 29.88C95.6998 29.88 95.4341 29.6571 95.4341 29.2714C95.4341 28.8685 95.6055 28.2857 96.0855 27.8742C96.3512 27.6428 96.6684 27.4885 96.9855 27.4885C97.2855 27.4885 97.4055 27.66 97.4055 27.8657C97.4055 28.1742 97.2255 28.3971 96.9169 28.5771C96.6169 28.7485 96.3255 28.8 96.1198 28.8171C96.1027 28.8685 96.0769 29.0057 96.0769 29.16C96.0769 29.3485 96.1884 29.5114 96.3684 29.5114C96.6341 29.5114 96.8312 29.3657 96.9512 29.2285C96.9598 29.2114 96.9769 29.2028 96.9941 29.2114L97.0884 29.28ZM96.6684 28.3971C96.7541 28.3114 96.8398 28.1314 96.8398 27.9514C96.8398 27.8657 96.8226 27.7628 96.6941 27.7628C96.4884 27.7628 96.2569 28.26 96.1798 28.62C96.2655 28.62 96.5055 28.5514 96.6684 28.3971Z" fill="#1B75BB"/>
<path d="M100.448 26.7428C100.491 26.5714 100.5 26.3743 100.337 26.3743H100.08C100.054 26.3743 100.045 26.3485 100.054 26.3228L100.088 26.1943C100.097 26.1685 100.105 26.16 100.157 26.16C100.208 26.16 101.168 26.1428 101.417 26.1428C102.034 26.1428 102.283 26.1857 102.54 26.4C102.78 26.6057 102.865 26.7685 102.865 27.1457C102.865 27.7628 102.403 28.3628 101.28 28.3628C101.091 28.3628 100.868 28.3285 100.765 28.3028L100.517 29.2285C100.474 29.4343 100.5 29.6314 100.688 29.6314H100.903C100.937 29.6314 100.954 29.6571 100.945 29.6828L100.928 29.7943C100.92 29.8285 100.911 29.8371 100.86 29.8371C100.791 29.8371 100.56 29.82 100.063 29.82C99.5568 29.82 99.3683 29.8371 99.2911 29.8371C99.2568 29.8371 99.2397 29.82 99.2483 29.7857L99.2568 29.6828C99.2654 29.6485 99.2826 29.6314 99.3168 29.6314H99.4026C99.6426 29.6314 99.7283 29.4257 99.7883 29.2028L100.448 26.7428ZM100.825 28.08C100.92 28.14 101.1 28.1657 101.211 28.1657C101.785 28.1657 102.111 27.6 102.111 27.1028C102.111 26.4685 101.614 26.3314 101.468 26.3314C101.391 26.3314 101.348 26.3314 101.28 26.34L100.825 28.08Z" fill="#1B75BB"/>
<path d="M104.065 29.7C103.988 29.6229 103.937 29.46 103.937 29.2457C103.937 29.0486 103.988 28.8343 104.074 28.6372C104.228 28.2857 104.52 27.9771 104.657 27.8143L104.623 27.78C104.503 27.9 104.297 27.9514 104.1 27.9514H103.834C103.611 27.9514 103.543 28.02 103.534 28.1143C103.543 28.1829 103.663 28.2429 103.705 28.2686C103.74 28.2857 103.825 28.3714 103.825 28.5172C103.825 28.6629 103.757 28.74 103.585 28.74C103.44 28.74 103.294 28.5943 103.294 28.3114C103.294 28.0886 103.431 27.8571 103.508 27.7714C103.62 27.6514 103.731 27.5057 104.125 27.5057C104.785 27.5057 104.845 27.48 104.905 27.48C104.974 27.48 105.025 27.5143 104.983 27.5914C104.683 28.0629 104.537 28.2686 104.537 28.92C104.537 29.28 104.683 29.46 104.82 29.46C105.051 29.46 105.188 29.3657 105.274 29.2372C105.497 28.9114 105.54 28.6886 105.54 28.2943C105.557 28.1057 105.514 28.0114 105.463 27.96C105.437 27.9343 105.385 27.8314 105.385 27.7543C105.385 27.6771 105.488 27.4714 105.745 27.4714C105.951 27.4714 106.037 27.7029 106.037 27.9343C106.037 28.2943 105.968 28.5257 105.651 29.0571C105.385 29.4943 104.974 29.8629 104.46 29.8629C104.271 29.88 104.168 29.8029 104.065 29.7Z" fill="#1B75BB"/>
<path d="M107.923 27.6514H108.471C108.497 27.6514 108.506 27.6685 108.497 27.7028L108.463 27.8485C108.454 27.8828 108.429 27.8999 108.394 27.8999H107.846L107.4 29.0999C107.374 29.1856 107.323 29.3228 107.323 29.3914C107.323 29.4428 107.366 29.4942 107.443 29.4942C107.546 29.4942 107.871 29.2628 107.906 29.2285C107.923 29.2114 107.94 29.2114 107.957 29.2285L108.017 29.2971C108.034 29.3142 108.034 29.3228 108.034 29.3399C107.966 29.4342 107.503 29.8885 106.954 29.8885C106.766 29.8885 106.671 29.7771 106.671 29.6914C106.671 29.5799 106.689 29.4599 106.731 29.3571L107.22 27.9085H106.8C106.766 27.9085 106.757 27.8828 106.766 27.8485L106.8 27.7028C106.809 27.6771 106.826 27.6685 106.86 27.6685H107.306L107.486 27.0771C107.503 27.0256 107.529 27.0085 107.666 26.9999C107.803 26.9914 108.094 26.8542 108.137 26.8199C108.163 26.8028 108.197 26.7856 108.223 26.7856C108.257 26.7856 108.283 26.8456 108.266 26.8799L107.923 27.6514Z" fill="#1B75BB"/>
<path d="M108.78 29.477C108.78 29.297 108.908 29.0913 109.165 29.0913C109.457 29.0913 109.568 29.3227 109.568 29.4942C109.568 29.7085 109.414 29.8799 109.165 29.8799C108.943 29.8799 108.78 29.717 108.78 29.477Z" fill="#1B75BB"/>
<path d="M112.877 29.4686C112.843 29.5886 112.903 29.6314 112.997 29.6314H113.417C113.803 29.6314 114 29.6228 114.103 29.6057C114.197 29.5886 114.248 29.5543 114.351 29.46C114.531 29.2971 114.908 28.8857 114.934 28.8428C114.96 28.8 114.968 28.7828 114.994 28.7914L115.088 28.8343C115.114 28.8428 115.114 28.86 115.105 28.8686L114.823 29.8114C114.805 29.8628 114.78 29.8971 114.754 29.8971C114.72 29.8971 114.677 29.88 114.617 29.8628C114.557 29.8457 114.488 29.8286 114.42 29.8286C114.3 29.8286 113.623 29.8114 112.62 29.8114C112.191 29.8114 111.754 29.8286 111.694 29.8286C111.66 29.8286 111.643 29.82 111.651 29.7771L111.668 29.6657C111.677 29.64 111.685 29.6228 111.72 29.6228H111.797C111.977 29.6228 112.097 29.5628 112.2 29.2286L112.98 26.6914C113.057 26.4514 112.997 26.3486 112.843 26.3486H112.645C112.611 26.3486 112.594 26.3314 112.603 26.3057L112.637 26.1686C112.645 26.1428 112.663 26.1343 112.705 26.1343C112.765 26.1343 112.997 26.1514 113.485 26.1514C114.043 26.1514 114.291 26.1343 114.351 26.1343C114.385 26.1343 114.403 26.1514 114.394 26.1857L114.368 26.2971C114.36 26.3314 114.343 26.34 114.3 26.34H114.111C113.923 26.34 113.811 26.4 113.725 26.7086L112.877 29.4686Z" fill="#1B75BB"/>
<path d="M117.103 27.6514H117.651C117.677 27.6514 117.685 27.6685 117.677 27.7028L117.643 27.8485C117.634 27.8828 117.608 27.8999 117.574 27.8999H117.034L116.588 29.0999C116.563 29.1856 116.511 29.3228 116.511 29.3914C116.511 29.4428 116.554 29.4942 116.631 29.4942C116.734 29.4942 117.06 29.2628 117.085 29.2285C117.103 29.2114 117.12 29.2114 117.137 29.2285L117.197 29.2971C117.214 29.3142 117.223 29.3228 117.214 29.3399C117.145 29.4342 116.683 29.8885 116.134 29.8885C115.945 29.8885 115.851 29.7771 115.851 29.6914C115.851 29.5799 115.868 29.4599 115.911 29.3571L116.4 27.9085H115.98C115.945 27.9085 115.937 27.8828 115.945 27.8485L115.98 27.7028C115.988 27.6771 116.005 27.6685 116.04 27.6685H116.485L116.665 27.0771C116.691 27.0256 116.708 27.0085 116.845 26.9999C116.983 26.9914 117.274 26.8542 117.317 26.8199C117.343 26.8028 117.377 26.7856 117.403 26.7856C117.437 26.7856 117.463 26.8456 117.445 26.8799L117.103 27.6514Z" fill="#1B75BB"/>
<path d="M120.634 26.117C120.711 26.117 120.729 26.1684 120.703 26.2284C120.634 26.417 119.837 28.9713 119.76 29.3055C119.726 29.4598 119.726 29.537 119.794 29.537C119.871 29.537 120.077 29.3055 120.111 29.2713C120.137 29.2455 120.146 29.2455 120.163 29.2627L120.231 29.3313C120.24 29.3398 120.249 29.3655 120.231 29.3827C120.197 29.4341 119.863 29.8713 119.323 29.8713C119.186 29.8713 119.117 29.8027 119.117 29.7084C119.117 29.5627 119.211 29.2798 119.314 28.9798L119.246 28.9455C118.989 29.3741 118.654 29.8713 118.234 29.8713C117.969 29.8713 117.806 29.5798 117.806 29.357C117.806 29.0141 117.994 28.4141 118.431 27.9255C118.586 27.7541 118.877 27.4798 119.246 27.4798C119.4 27.4798 119.563 27.5398 119.657 27.6513L119.957 26.5284C119.991 26.417 119.949 26.3055 119.803 26.3055H119.649C119.606 26.3055 119.597 26.2798 119.606 26.2713L119.631 26.1427C119.64 26.117 119.649 26.1084 119.726 26.1084H120.634V26.117ZM119.211 27.6855C118.929 27.6855 118.474 28.8855 118.474 29.297C118.474 29.4255 118.526 29.4855 118.603 29.4855C118.714 29.4855 118.946 29.1427 119.143 28.8513C119.297 28.637 119.486 28.2513 119.486 28.0455C119.486 27.8484 119.4 27.6855 119.211 27.6855Z" fill="#1B75BB"/>
<path d="M120.883 29.477C120.883 29.297 121.011 29.0913 121.269 29.0913C121.56 29.0913 121.671 29.3227 121.671 29.4942C121.671 29.7085 121.517 29.8799 121.269 29.8799C121.046 29.8799 120.883 29.717 120.883 29.477Z" fill="#1B75BB"/>
<path fill-rule="evenodd" clip-rule="evenodd" d="M11.5712 10.337C11.5712 10.337 4.43125 7.81696 2.81125 11.5541C2.03125 13.3541 2.51982 15.7198 3.52267 17.7084C4.76553 20.1684 6.68553 22.0884 6.68553 22.0884C6.68553 22.0884 0.788388 19.2598 0.0598166 13.3455C-0.120183 11.8884 0.128388 10.7398 0.685531 10.0027C1.4741 8.96553 2.44267 8.59696 3.74553 8.40839C5.96553 8.10839 8.48553 8.93125 11.5712 10.337Z" fill="#1B75BB"/>
<path fill-rule="evenodd" clip-rule="evenodd" d="M2.89703 19.1912C2.83703 19.0627 2.77703 18.9255 2.7256 18.797C1.96274 17.0141 1.53417 15.1627 2.03989 13.2427C2.10846 12.9855 2.1856 12.7284 2.28846 12.4798C2.49417 11.9827 2.81132 11.3655 3.23132 10.877C3.07703 11.0741 2.93989 11.297 2.82846 11.5541C2.04846 13.3541 2.53703 15.7198 3.53989 17.7084C4.7656 20.1684 6.6856 22.0884 6.6856 22.0884C6.6856 22.0884 4.7056 21.137 2.89703 19.1912Z" fill="#282560"/>
<path fill-rule="evenodd" clip-rule="evenodd" d="M3.96844 2.11694C5.0913 2.11694 5.99987 3.29123 5.99987 4.73123C5.99987 6.17123 5.0913 7.34551 3.96844 7.34551C2.84558 7.34551 1.93701 6.17123 1.93701 4.73123C1.93701 3.29123 2.84558 2.11694 3.96844 2.11694Z" fill="#1B75BB"/>
<path fill-rule="evenodd" clip-rule="evenodd" d="M3.1626 7.13126C4.19117 6.89983 4.97117 5.89697 5.28831 4.9284C5.45974 4.39697 5.60545 3.8484 5.66545 3.29126C5.87974 3.70269 5.99974 4.19983 5.99974 4.73126C5.99974 6.17126 5.09117 7.34555 3.96831 7.34555C3.67688 7.34555 3.41117 7.2684 3.1626 7.13126Z" fill="#282560"/>
<path fill-rule="evenodd" clip-rule="evenodd" d="M20.3913 0.00848647C21.6941 0.111344 22.6456 1.55992 22.517 3.24849C22.3884 4.93706 21.2227 6.2142 19.9198 6.11134C18.6084 5.99991 17.657 4.55134 17.7856 2.87134C17.9227 1.18277 19.0884 -0.0943707 20.3913 0.00848647Z" fill="#E92328"/>
<path fill-rule="evenodd" clip-rule="evenodd" d="M19.2256 5.9143C19.397 5.86287 19.5513 5.7943 19.6884 5.71716C20.897 5.04002 21.6942 3.84859 21.9942 2.4943C22.0799 2.11716 22.1313 1.73144 22.1656 1.33716C22.4313 1.87716 22.5684 2.53716 22.5084 3.24002C22.3799 4.92002 21.2142 6.20573 19.9113 6.10287C19.6713 6.08573 19.4399 6.01716 19.2256 5.9143Z" fill="#BD2428"/>
<path fill-rule="evenodd" clip-rule="evenodd" d="M10.4058 12.8571C10.4058 12.8571 12.96 9.76286 15.4458 9.25714C16.7229 8.99143 18.4458 9.85714 18.8143 11.2457C20.0229 15.78 13.2515 23.0486 13.2515 23.0486C13.2515 23.0486 23.6829 16.8514 22.0286 10.74C21.7629 9.76286 20.7343 8.10857 19.14 7.56C15.6515 6.36 13.1829 8.68286 10.4058 12.8571Z" fill="#E92328"/>
<path fill-rule="evenodd" clip-rule="evenodd" d="M16.2598 20.9313C17.7083 19.5427 18.9512 17.8284 19.8512 16.3198C20.4769 15.2741 21.0855 14.1256 21.2912 12.9084C21.5312 11.417 21.3941 9.89984 20.5969 8.58841L20.4512 8.33984C21.2998 9.07699 21.8483 10.0798 22.0283 10.757C23.0912 14.6484 19.1998 18.5913 16.2598 20.9313Z" fill="#BD2428"/>
<path fill-rule="evenodd" clip-rule="evenodd" d="M10.4655 15.3171C11.3655 15.3171 12.0941 16.26 12.0941 17.4257C12.0941 18.5829 11.3655 19.5343 10.4655 19.5343C9.56549 19.5343 8.83691 18.5914 8.83691 17.4257C8.83691 16.26 9.56549 15.3171 10.4655 15.3171Z" fill="#E92328"/>
<path fill-rule="evenodd" clip-rule="evenodd" d="M9.95117 19.4229C10.1312 19.3457 10.2855 19.2515 10.3883 19.1657C10.8083 18.8143 11.0912 18.3086 11.3569 17.8457C11.5883 17.4429 11.8112 17.0143 11.9483 16.5686C12.0426 16.8343 12.094 17.1257 12.094 17.4343C12.094 18.6 11.3655 19.5429 10.4655 19.5429C10.2855 19.5257 10.114 19.4915 9.95117 19.4229Z" fill="#BD2428"/>
<path fill-rule="evenodd" clip-rule="evenodd" d="M13.2172 20.5285C13.2172 20.5285 9.65145 25.037 6.30859 16.0627C6.30859 16.0627 6.49716 21.5999 9.57431 23.9485C10.7829 24.8742 12.8829 22.7827 13.2172 20.5285Z" fill="#1B75BB"/>
<path fill-rule="evenodd" clip-rule="evenodd" d="M8.25391 22.5428L8.36533 22.6028C9.52248 23.22 10.7739 22.9971 11.8368 22.2942C12.3768 21.9342 12.771 21.4114 13.1139 20.8628C13.131 20.8371 13.1482 20.8028 13.1653 20.7771C12.7282 22.9371 10.731 24.8485 9.56533 23.9571C9.05962 23.5542 8.62248 23.0742 8.25391 22.5428Z" fill="#282560"/>
<path d="M35.7343 15.6169C35.7943 16.3284 36.0943 17.4084 36.7285 17.4084H37.4743C37.5857 17.4084 37.6114 17.4684 37.6114 17.5455V18.0684C37.6114 18.1455 37.5943 18.2055 37.44 18.2055C37.2343 18.2055 36.7114 18.1455 35.3228 18.1455C33.7028 18.1455 33.0343 18.2055 32.8628 18.2055C32.7085 18.2055 32.6914 18.1884 32.6914 18.0341V17.5284C32.6914 17.4684 32.7086 17.4169 32.8028 17.4169H33.5828C34.1914 17.4169 34.4228 16.5255 34.5 15.9084C34.6714 14.5369 34.8428 9.98552 34.8428 9.63409L34.8257 6.67695C34.8257 5.78552 34.6371 5.21123 33.78 5.21123H33.1543C33.0428 5.21123 33.0257 5.15123 33.0257 5.07409V4.53409C33.0257 4.47409 33.0428 4.41409 33.1543 4.41409C33.3428 4.41409 33.8571 4.47409 36.1114 4.47409C37.0028 4.47409 37.5943 4.41409 37.8257 4.41409C38.0143 4.41409 38.1686 4.43123 38.28 4.7398C39.4971 8.02266 40.8771 11.2284 41.94 14.1169C42.1457 13.7484 43.5943 10.1569 43.7143 9.89123C43.7914 9.69409 45.6943 5.08266 45.7886 4.69695C45.8486 4.48266 46.0971 4.46552 46.6628 4.46552C49.6371 4.46552 50.28 4.40552 50.4943 4.40552C50.5885 4.40552 50.6057 4.46552 50.6057 4.57695V5.02266C50.6057 5.14266 50.5885 5.19409 50.4514 5.19409H49.6114C49.1743 5.19409 49.1143 5.54552 49.1143 5.94837C49.1143 6.2398 49.1314 10.9884 49.1571 11.3912C49.1571 11.7769 49.2171 16.0027 49.2171 16.3541C49.2171 17.0912 49.3885 17.3998 49.6543 17.3998H50.5714C50.6828 17.3998 50.7 17.4598 50.7 17.5369V18.0169C50.7 18.1369 50.6828 18.1884 50.5286 18.1884C50.2971 18.1884 49.9543 18.1284 47.7085 18.1284C45.7628 18.1284 45.0171 18.1884 44.7771 18.1884C44.64 18.1884 44.6228 18.1284 44.6228 18.0169V17.5369C44.6228 17.4427 44.64 17.3998 44.7771 17.3998H45.8486C46.1743 17.3998 46.3457 17.2798 46.38 16.7398C46.3971 16.5084 46.4571 12.9941 46.4571 11.6484V5.76837H46.3457C46.1571 6.09409 44.0228 11.3484 43.68 12.1369C43.2771 13.0284 41.58 17.3055 41.4857 17.4855C41.3914 17.6398 41.2543 17.9312 41.0314 17.9312C40.8943 17.9312 40.7828 17.7941 40.6886 17.5884C40.6286 17.4512 38.1171 11.4684 37.98 11.1255C37.6371 10.2341 35.88 5.91409 35.7343 5.68266C35.6571 5.94837 35.6228 10.8341 35.6228 11.0655C35.6057 11.2884 35.6228 13.9198 35.7343 15.6169Z" fill="#1B75BB"/>
<path d="M54.8915 13.337V13.8598C54.8915 15.8656 56.0143 16.8513 57.4029 16.8513C58.3372 16.8513 59.1 16.4056 59.4772 15.7884C59.5115 15.6941 59.5886 15.677 59.6658 15.7284L59.9915 15.8998C60.0686 15.9427 60.1286 16.037 59.9486 16.3627C59.6058 17.0741 58.3715 18.4113 56.58 18.4113C55.3629 18.4113 54.3515 18.197 53.7172 17.5027C52.7486 16.4398 52.4229 15.6856 52.4058 14.1856C52.4058 13.6456 52.4058 12.6256 53.2629 11.3484C53.9486 10.3284 55.1143 9.7627 56.58 9.7627C59.6658 9.7627 59.8372 12.7541 59.8372 13.0627C59.8372 13.3113 59.6658 13.337 59.2458 13.337H54.8915ZM56.7429 12.5998C57.1629 12.5998 57.3515 12.5056 57.3515 12.2141C57.3515 11.3656 57.0086 10.5341 56.4172 10.5341C55.5258 10.5341 55.0458 11.2456 54.9086 12.5998H56.7429Z" fill="#1B75BB"/>
<path d="M67.1058 6.11982C67.0886 5.57982 66.8743 5.27125 65.8629 5.02268C65.7515 5.00554 65.7258 4.96268 65.7258 4.88554V4.51697C65.7258 4.43982 65.7601 4.37982 65.8801 4.36268C67.0029 4.26839 68.4686 4.14839 69.1029 4.01982C69.3686 3.95982 69.4458 3.92554 69.6001 3.92554C69.7115 3.92554 69.7886 4.06268 69.7715 4.27697C69.6943 5.24554 69.6601 8.03982 69.6601 10.7655V15.0341C69.6601 15.7455 69.6601 16.4998 69.8486 16.8084C70.0029 17.057 70.2515 17.0741 70.7058 17.0227C70.9201 17.0055 70.9886 17.057 71.0143 17.1598L71.0743 17.4513C71.0915 17.5713 71.0572 17.6227 70.9458 17.6655L68.0829 18.3941C67.9715 18.437 67.8772 18.377 67.8172 18.2227L67.5086 17.2541C66.9001 17.9655 65.7772 18.4284 64.9543 18.4284C63.9601 18.4284 63.5829 18.3512 62.6829 17.5027C61.9372 16.8255 61.4829 16.037 61.4829 14.7598C61.4829 13.217 61.7486 12.2141 62.8201 11.0141C63.5658 10.1827 64.4401 9.77982 65.6401 9.77982C66.2658 9.77982 66.8229 9.89982 67.1829 10.0284L67.1058 6.11982ZM67.1658 12.317C67.1658 11.9655 67.1486 11.6398 67.0115 11.3913C66.7286 10.8684 66.0943 10.5255 65.5629 10.5255C65.2201 10.5255 64.8601 10.6627 64.5686 11.0655C64.1143 11.6998 63.9601 12.3598 63.9601 13.2855C63.9601 15.5655 64.9286 17.1427 66.1115 17.1427C66.6258 17.1427 66.8315 16.9541 67.0286 16.757C67.1829 16.6027 67.2172 16.2513 67.2172 15.8313L67.1658 12.317Z" fill="#1B75BB"/>
<path d="M71.3056 22.2771C71.3056 21.6428 71.7598 21.1799 72.2398 21.1799C72.5055 21.1799 72.7713 21.2399 73.037 21.3942C73.2684 21.5485 73.4913 21.5656 73.6456 21.4713C73.8341 21.3342 74.8284 19.2342 75.0598 18.557C74.9056 17.8799 72.5227 11.8628 72.3941 11.5542C72.2055 11.0742 71.9913 10.7228 71.7255 10.7228H71.417C71.2798 10.7228 71.2627 10.6628 71.2627 10.5513V10.1228C71.2627 10.0456 71.2798 9.98562 71.417 9.98562C71.5884 9.98562 72.0427 10.0456 73.7056 10.0456C74.8713 10.0456 75.4627 9.98562 75.6684 9.98562C75.8227 9.98562 75.8398 10.0456 75.8398 10.1571V10.5599C75.8398 10.6542 75.8227 10.7142 75.7284 10.7142H75.4627C75.2484 10.7142 75.0856 10.8513 75.1198 11.1599C75.1798 11.4856 76.2427 15.2142 76.3798 15.6342H76.4741C76.9541 14.537 77.9827 11.8542 78.0941 11.4856C78.2484 10.9628 77.9998 10.7142 77.6141 10.7142H77.3056C77.1941 10.7142 77.1684 10.6542 77.1684 10.5599V10.1313C77.1684 10.0371 77.1855 9.97705 77.2798 9.97705C77.5284 9.97705 77.9313 10.0371 78.9941 10.0371C79.7913 10.0371 80.237 9.97705 80.4427 9.97705C80.5541 9.97705 80.5541 10.0542 80.5541 10.1742V10.5428C80.5541 10.6628 80.5541 10.7142 80.4598 10.7142H80.2541C80.0484 10.7142 79.7741 10.7913 79.5513 11.0999C79.2084 11.5628 77.8713 14.4428 76.4227 17.6056C75.4541 19.7056 74.6313 21.5056 74.2713 22.1228C73.9627 22.6456 73.5427 23.3999 72.4798 23.3999C71.8198 23.3913 71.3056 22.9885 71.3056 22.2771Z" fill="#1B75BB"/>
<path d="M87.2567 11.9655C87.2739 12.0598 87.2567 12.1027 87.1796 12.137L86.8367 12.2912C86.7767 12.3341 86.7253 12.3084 86.6482 12.2312L85.5768 11.0741C85.3282 10.8255 84.9682 10.517 84.3939 10.517C83.8196 10.517 83.271 10.9027 83.271 11.5627C83.3053 12.2398 83.5367 12.4284 84.951 12.8141C85.8853 13.0627 86.3396 13.1998 86.9139 13.817C87.411 14.3227 87.5225 14.7855 87.5225 15.4541C87.5225 17.1684 86.1853 18.4027 84.111 18.4027C83.0482 18.4027 82.1139 18.017 81.8825 17.8455C81.8053 17.7855 81.7882 17.7084 81.771 17.597L81.5225 15.7455C81.5225 15.6512 81.5825 15.6084 81.6596 15.5912L82.0025 15.497C82.0625 15.4798 82.0967 15.497 82.131 15.5741L82.8939 16.7141C83.2367 17.2198 83.6739 17.6998 84.5482 17.6998C85.251 17.6998 85.671 17.1941 85.671 16.5255C85.671 15.7541 85.1139 15.5055 83.8796 15.1198C82.5253 14.717 81.5567 14.057 81.5567 12.6684C81.5567 11.7598 81.8225 11.0055 82.551 10.4655C83.3139 9.90838 83.8453 9.77124 84.651 9.77124C85.6796 9.77124 86.3053 10.0027 86.6482 10.1741C86.931 10.3112 86.9739 10.4055 86.991 10.5427L87.2567 11.9655Z" fill="#1B75BB"/>
<path d="M90.0599 12.9856C90.0599 12.3341 89.9999 12.0427 89.4342 11.7341L88.997 11.5027C88.9027 11.4427 88.8599 11.4084 88.8599 11.3313V11.0827C88.8599 11.0227 88.8942 10.9884 88.997 10.9456L91.4741 9.95984C91.7227 9.86555 91.8942 9.77127 92.0656 9.77127C92.177 9.77127 92.237 9.90841 92.297 10.1741L92.4342 10.8856H92.5113C92.9913 10.2856 93.977 9.7627 94.9284 9.7627C95.957 9.7627 96.6599 10.0541 97.2942 10.7484C98.0913 11.6398 98.357 12.3084 98.3227 13.4313C98.3399 16.3627 96.4027 18.4113 93.977 18.4113C93.6513 18.4113 93.0427 18.3941 92.5456 18.1027L92.5627 21.0513C92.5799 22.6113 92.7684 22.7141 93.2313 22.7141H93.7113C93.8656 22.7141 93.8827 22.7913 93.8827 22.9113V23.2798C93.8827 23.3913 93.8484 23.4513 93.7113 23.4513C93.617 23.4513 92.9656 23.3913 91.2684 23.3913C89.8799 23.3913 89.2113 23.4513 89.057 23.4513C88.9199 23.4513 88.8856 23.3913 88.8856 23.2627V22.877C88.8856 22.7827 88.9199 22.7227 89.117 22.7227H89.5542C89.8799 22.7227 90.0084 22.5341 90.0513 22.217C90.0856 21.7884 90.0856 21.2141 90.0856 20.1084L90.0599 12.9856ZM92.537 16.097C92.537 16.4056 92.6742 16.9113 93.0513 17.2198C93.3342 17.4513 93.737 17.6656 94.1913 17.6656C94.9884 17.6656 95.6999 16.9541 95.6999 15.1027C95.6999 13.8856 95.5627 11.1084 93.7199 11.1084C93.3599 11.1084 92.8456 11.2627 92.537 11.6313V16.097Z" fill="#1B75BB"/>
<path d="M104.502 18.2056C104.348 18.2056 103.474 18.1456 101.811 18.1456C100.705 18.1456 99.9596 18.2056 99.7539 18.2056C99.6596 18.2056 99.5996 18.1628 99.5996 18.0085V17.6228C99.5996 17.5028 99.6596 17.4685 99.7882 17.4685H100.491C100.705 17.4685 100.834 17.3913 100.851 17.0828C100.885 16.5085 100.885 15.9085 100.885 15.3685L100.851 12.6685C100.851 12.1285 100.74 11.7428 99.9339 11.4513C99.7282 11.3742 99.7025 11.2971 99.7025 11.1856V10.9713C99.7025 10.9113 99.7368 10.8771 99.9082 10.8171L102.745 9.89135C102.951 9.81421 103.122 9.77135 103.26 9.77135C103.414 9.77135 103.465 9.86563 103.448 10.0028C103.414 10.3285 103.414 11.5456 103.414 13.2428V15.3085C103.414 16.0628 103.414 16.7571 103.431 16.9713C103.465 17.3399 103.56 17.4771 103.774 17.4771H104.46C104.614 17.4771 104.648 17.5371 104.648 17.6485V18.0171C104.674 18.1456 104.64 18.2056 104.502 18.2056ZM101.897 8.29706C101.1 8.31421 100.508 7.67992 100.508 6.90849C100.508 6.2742 101.16 5.63135 101.991 5.63135C102.925 5.63135 103.405 6.29135 103.405 6.84849C103.397 7.49135 102.96 8.26278 101.897 8.29706Z" fill="#1B75BB"/>
<path d="M109.388 16.6799C109.388 17.2799 109.577 17.4685 109.98 17.4685H110.76C110.871 17.4685 110.897 17.5285 110.897 17.6399V18.0257C110.897 18.1457 110.88 18.1971 110.802 18.1971C110.691 18.1971 109.808 18.1371 108.094 18.1371C106.628 18.1371 105.822 18.1971 105.711 18.1971C105.634 18.1971 105.6 18.1542 105.6 17.9999V17.6314C105.6 17.4942 105.634 17.4599 105.805 17.4599H106.354C106.637 17.4599 106.808 17.3399 106.851 16.9971C106.885 16.4571 106.885 15.7799 106.885 14.8199V13.2171C106.885 12.3857 106.697 12.0428 106.122 11.7085L105.797 11.5114C105.685 11.4514 105.642 11.4171 105.642 11.3399V11.1685C105.642 11.0914 105.677 11.0485 105.797 11.0142L108.462 9.83994C108.574 9.79708 108.651 9.7628 108.771 9.7628C108.908 9.7628 108.977 9.8828 109.002 9.99422L109.174 11.5028H109.311C109.902 10.2257 110.742 9.65137 111.582 9.65137C112.157 9.65137 112.594 10.0971 112.594 10.7742C112.594 11.2971 112.002 11.8714 111.377 11.8714C111.111 11.8714 110.862 11.8114 110.691 11.6999C110.537 11.6057 110.365 11.5628 110.211 11.5628C110.022 11.5628 109.834 11.6571 109.714 11.9142C109.465 12.4371 109.388 12.8057 109.388 13.0542V16.6799Z" fill="#1B75BB"/>
<path d="M115.774 13.337V13.8598C115.774 15.8656 116.897 16.8513 118.294 16.8513C119.229 16.8513 119.991 16.4056 120.369 15.7884C120.403 15.6941 120.48 15.677 120.557 15.7284L120.883 15.8998C120.96 15.9427 121.02 16.037 120.849 16.3627C120.506 17.0741 119.263 18.4113 117.471 18.4113C116.254 18.4113 115.243 18.197 114.617 17.5027C113.649 16.4398 113.323 15.6856 113.306 14.1856C113.306 13.6456 113.306 12.6256 114.163 11.3484C114.849 10.3284 116.014 9.7627 117.48 9.7627C120.566 9.7627 120.737 12.7541 120.737 13.0627C120.737 13.3113 120.566 13.337 120.146 13.337H115.774ZM117.617 12.5998C118.037 12.5998 118.226 12.5056 118.226 12.2141C118.226 11.3656 117.883 10.5341 117.291 10.5341C116.4 10.5341 115.92 11.2456 115.783 12.5998H117.617Z" fill="#1B75BB"/>
<path fill-rule="evenodd" clip-rule="evenodd" d="M124.757 11.6655H124.886V10.0112H124.731L124.106 10.9798L123.471 10.0112C123.411 10.0112 123.377 10.0112 123.317 10.0112V11.6655H123.446V10.1912L124.089 11.1598H124.131L124.766 10.1912V11.6655H124.757ZM122.331 11.6655H122.46V10.1312H123.06V10.0198H121.731V10.1312H122.331V11.6655Z" fill="#1B75BB"/>
</g>
<defs>
<clipPath id="clip0_1345_4437">
<rect width="124.877" height="30" fill="white"/>
</clipPath>
</defs>
</svg>
